# xmcd CD database file
#
# Track frame offsets:
#	150
#	13607
#	35712
#	59990
#	82680
#	102962
#	135785
#	163632
#	174180
#	196632
#	212860
#	228457
#	250937
#	269317
#	283115
#	302642
#	319907
#
# Disc length: 4533 seconds
#
# Revision: 0
# Processed by: cddbd v1.4PL0 Copyright (c) Steve Scherf et al.
# Submitted via: Feurio! 1.65 - http://www.feurio.com
#
DISCID=e511b311
DTITLE=Alexis Korner - The Masters
DYEAR=1998
DGENRE=Blues
TTITLE0=One Scotch, One Bourbon, One Beer
TTITLE1=Stump Blues
TTITLE2=Medley: Streamline Train - My Babe
TTITLE3=32-20 Blues
TTITLE4=Hi Heel Sneakers
TTITLE5=Will The Circle Be Unbroken
TTITLE6=Mary Open The Door
TTITLE7=Blue Monday
TTITLE8=Key To The Highway
TTITLE9=Catcote Rag
TTITLE10=Phonograph Blues
TTITLE11=Little Bitty Gal's Blues
TTITLE12=Sweet Home Chicago
TTITLE13=Cherry Red
TTITLE14=I Got My Mojo Working
TTITLE15=Gospel Ship
TTITLE16=Geneva
EXTD=Erscheinungsdatum: 24. April 1998 \r\nLabel: Eagle Rock (edel ) 
EXTD=\r\nFormat: Audio CD [CD-Anzahl: 1)\r\n
EXTT0=
EXTT1=
EXTT2=
EXTT3=
EXTT4=
EXTT5=
EXTT6=
EXTT7=
EXTT8=
EXTT9=
EXTT10=
EXTT11=
EXTT12=
EXTT13=
EXTT14=
EXTT15=
EXTT16=
PLAYORDER=
